<svg xmlns="http://www.w3.org/2000/svg" xmlns:xlink="http://www.w3.org/1999/xlink" stroke-miterlimit="10" stroke-linecap="square" stroke="none" fill="none" viewBox="0 0 258.0877390326209 273.24" version="1.1" style="max-height: 500px" width="258.0877390326209" height="273.24"><clipPath id="p.0"><path clip-rule="nonzero" d="m0 0l960.0 0l0 540.0l-960.0 0l0 -540.0z" data-index="0" style="visibility: visible;"></path></clipPath><g clip-path="url(#p.0)"><path fill-rule="evenodd" d="m0 0l960.0 0l0 540.0l-960.0 0z" fill="#ffffff" data-index="1" style="visibility: visible; opacity: 1; fill: rgb(121, 40, 202);"></path><path fill-rule="evenodd" d="m2.1653543 23.887138l33.039368 0l0 209.66928l-33.039368 0z" fill="#000000" data-index="2" style="visibility: visible;"></path><path fill-rule="evenodd" d="m74.29921 75.14173l30.929138 0l0 158.4252l-30.929138 0z" fill="#000000" data-index="3" style="visibility: visible; opacity: 1;"></path><path fill-rule="evenodd" d="m104.67454 142.04462l0 30.519684l-102.519684 0l0 -30.519684z" fill="#000000" data-index="4" style="visibility: visible;"></path><path fill-rule="evenodd" d="m114.01839 0l33.039368 0l0 244.06299l-33.039368 0z" fill="#f1c232" data-index="5" style="visibility: visible; opacity: 1;"></path><path fill-rule="evenodd" d="m257.08136 244.06561l0 27.149597l-143.05511 0l0 -27.149597z" fill="#f1c232" data-index="6" style="visibility: visible; opacity: 1;"></path><path fill-rule="evenodd" d="m154.02887 77.58268l30.929138 0l0 156.0l-30.929138 0z" fill="#000000" data-index="7" style="visibility: visible; opacity: 1;"></path><path fill-rule="evenodd" d="m226.16273 23.884514l30.929123 0l0 209.70078l-30.929123 0z" fill="#000000" data-index="8" style="visibility: visible;"></path><path fill-rule="evenodd" d="m256.53806 142.04462l0 30.519684l-102.519684 0l0 -30.519684z" fill="#000000" data-index="9" style="visibility: visible; opacity: 1;"></path><path fill-rule="evenodd" d="m105.22835 244.06561l0 27.149597l-105.22835 0l0 -27.149597z" fill="#000000" data-index="10" style="visibility: visible; opacity: 1;"></path></g></svg>